<?xml version="1.0" encoding="UTF-8" standalone="no"?>
<svg
   height="24"
   viewBox="0 -960 960 960"
   width="24"
   fill="#80cc28"
   version="1.1"
   id="svg586"
   xmlns="http://www.w3.org/2000/svg"
   xmlns:svg="http://www.w3.org/2000/svg">
  <defs
     id="defs590" />
  <path
     id="path584"
     d="m 480,-880 c -65.99979,0 -126.69809,14.51571 -182.03125,43.51562 C 242.63559,-807.48444 196.66655,-768.66652 160,-720 v -80 H 80 v 240 h 240 v -80 H 203.98438 c 27.99991,-47.99985 66.19806,-86.46884 114.53124,-115.46875 48.33321,-28.99991 102.15123,-43.51563 161.48438,-43.51563 89.33306,0 165.03143,30.96894 227.03125,92.96876 52.37194,52.37192 77.65536,116.71149 85.78125,188.59374 a 275.38049,265.04099 0 0 1 83.67188,54.84376 C 876.74589,-468.67425 880,-473.82109 880,-480 c 0,-55.33316 -10.48444,-107.34911 -31.48438,-156.01562 -20.99991,-48.66654 -49.54699,-90.95325 -85.54687,-126.95313 -35.99988,-35.99988 -78.28659,-64.54696 -126.95313,-85.54687 C 587.34911,-869.51556 535.33316,-880 480,-880 Z M 80,-480 c 0,55.33316 10.484428,107.34911 31.48438,156.01562 20.99991,48.66654 49.54699,90.95325 85.54687,126.95313 35.99988,35.99988 78.28659,64.54696 126.95313,85.54687 C 372.65089,-90.484428 424.66684,-80 480,-80 c 7.72894,0 14.19746,-3.965802 21.79688,-4.375 a 275.38049,265.04099 0 0 1 -43.20313,-78.98438 c -35.73345,-2.43065 -70.82798,-7.09369 -103.125,-21.17187 -38.99988,-16.99994 -72.95319,-39.98446 -101.95313,-68.98437 C 224.51571,-282.51556 201.66661,-316.46887 185,-355.46875 168.33339,-394.46863 160,-436.00012 160,-480 Z" />
  <path
     d="m 643.79797,-80.891479 -12,-60.000001 q -12,-5 -22.5,-10.5 -10.5,-5.5 -21.5,-13.5 l -58,18 -40,-67.99999 46,-40 q -2,-14 -2,-26 0,-12 2,-26 l -46,-40 40,-68 58,18 q 11,-8 21.5,-13.5 10.5,-5.5 22.5,-10.5 l 12,-60 h 80 l 12,60 q 12,5 22.5,11 10.5,6 21.5,15 l 58,-20 40,70 -46,40 q 2,12 2,25 0,13 -2,25 l 46,40 -40,67.99999 -58,-18 q -11,8 -21.5,13.5 -10.5,5.5 -22.5,10.5 l -12,60.000001 z m 40,-119.999991 q 33,0 56.5,-23.5 23.5,-23.5 23.5,-56.5 0,-33 -23.5,-56.5 -23.5,-23.5 -56.5,-23.5 -33,0 -56.5,23.5 -23.5,23.5 -23.5,56.5 0,33 23.5,56.5 23.5,23.5 56.5,23.5 z"
     id="path806"
     style="display:inline" />
</svg>
