<?xml version="1.0" encoding="UTF-8" standalone="no"?>
<svg
   height="24"
   viewBox="0 -960 960 960"
   width="24"
   fill="#80cc28"
   version="1.1"
   id="svg983"
   sodipodi:docname="lock_reset_24dp_80CC28_FILL0_wght400_GRAD0_opsz24.svg"
   xmlns:inkscape="http://www.inkscape.org/namespaces/inkscape"
   xmlns:sodipodi="http://sodipodi.sourceforge.net/DTD/sodipodi-0.dtd"
   xmlns="http://www.w3.org/2000/svg"
   xmlns:svg="http://www.w3.org/2000/svg">
  <defs
     id="defs987" />
  <sodipodi:namedview
     id="namedview985"
     pagecolor="#ffffff"
     bordercolor="#000000"
     borderopacity="0.25"
     inkscape:showpageshadow="2"
     inkscape:pageopacity="0.0"
     inkscape:pagecheckerboard="0"
     inkscape:deskcolor="#d1d1d1"
     showgrid="false" />
  <path
     d="M 480,-80 Q 397,-80 324,-111.5 251,-143 197,-197 143,-251 111.5,-324 80,-397 80,-480 h 80 q 0,66 25,124.5 25,58.5 68.5,102 43.5,43.5 102,69 58.5,25.5 124.5,25.5 134,0 227,-93 93,-93 93,-227 0,-134 -93,-227 -93,-93 -227,-93 -89,0 -161.5,43.5 Q 246,-712 204,-640 h 116 v 80 H 80 v -240 h 80 v 80 q 55,-73 138,-116.5 83,-43.5 182,-43.5 83,0 156,31.5 73,31.5 127,85.5 54,54 85.5,127 31.5,73 31.5,156 0,83 -31.5,156 -31.5,73 -85.5,127 -54,54 -127,85.5 Q 563,-80 480,-80 Z"
     id="path981" />
</svg>
